# xmcd CD database file
# Copyright (C) 1996 Ti Kan
#
# Track frame offsets:
#	183
#	11770
#	32485
#	45463
#	61418
#	75370
#	86673
#	98208
#	113025
#	131700
#	151360
#	162618
#	174408
#	192378
#	202658
#	217793
#
# Disc length: 3087 seconds
#
# Revision: 1
# Processed by: cddbd v1.4b41PL1 Copyright (c) Steve Scherf et al.
# Submitted via: EasyCD 2.21 - (C) 1996 Greg Leichner
#
DISCID=c60c0d10
DTITLE=Daniel Donnell - Thoughts of Home
DYEAR=1900
DGENRE=
TTITLE0=My Shoes Keep Walking Back to You
TTITLE1=The Mountains of Mourne
TTITLE2=London Leaves
TTITLE3=Blue Eyes Crying in the Rain
TTITLE4=Old Days Remembered
TTITLE5=Send Me the Pillow You Dream On
TTITLE6=Moonlight and Roses
TTITLE7=A Little Piece of Heaven
TTITLE8=Far Far From Home
TTITLE9=The Isle of Innisfree
TTITLE10=My Heart Skips a Beat
TTITLE11=I Know One
TTITLE12=I'll Take You Home Again Kathleen
TTITLE13=Second Fiddle
TTITLE14=My Favourite Memory
TTITLE15=Forty Shades of Green
EXTD=
EXTT0=
EXTT1=
EXTT2=
EXTT3=
EXTT4=
EXTT5=
EXTT6=
EXTT7=
EXTT8=
EXTT9=
EXTT10=
EXTT11=
EXTT12=
EXTT13=
EXTT14=
EXTT15=
PLAYORDER=
